<?xml version="1.0" standalone="no"?>
<!DOCTYPE svg PUBLIC "-//W3C//DTD SVG 20010904//EN"
 "http://www.w3.org/TR/2001/REC-SVG-20010904/DTD/svg10.dtd">
<svg version="1.0" xmlns="http://www.w3.org/2000/svg"
 width="700.000000pt" height="700.000000pt" viewBox="0 0 700.000000 700.000000"
 preserveAspectRatio="xMidYMid meet">
<metadata>
Created by potrace 1.14, written by Peter Selinger 2001-2017
</metadata>
<g transform="translate(0.000000,700.000000) scale(0.100000,-0.100000)"
fill="#000000" stroke="none">
<path d="M2427 4874 c-1 -1 -47 -4 -102 -7 -321 -19 -572 -119 -761 -304 -89
-88 -115 -122 -163 -213 -120 -229 -140 -505 -51 -687 58 -117 164 -211 336
-297 107 -53 169 -77 419 -160 334 -112 449 -160 533 -223 119 -89 151 -200
103 -353 -58 -185 -213 -318 -444 -380 -40 -10 -91 -22 -114 -25 -23 -3 -57
-8 -75 -11 -50 -7 -257 -7 -315 0 -147 18 -255 66 -340 151 -72 73 -108 143
-119 234 -5 44 -14 71 -30 90 -22 26 -24 26 -172 28 -136 2 -153 0 -175 -17
-37 -29 -47 -70 -43 -173 6 -151 42 -248 130 -359 115 -145 330 -255 569 -293
17 -3 57 -10 87 -15 54 -9 456 -7 495 3 11 2 43 8 70 12 28 5 52 9 55 10 3 1
25 5 49 9 75 14 221 65 305 107 315 159 507 464 515 821 3 102 -10 160 -56
255 -89 184 -327 325 -783 463 -286 87 -483 175 -555 248 -82 83 -103 184 -65
321 44 159 147 269 310 334 225 89 506 97 680 20 160 -71 245 -186 251 -341 4
-86 18 -92 205 -92 144 0 154 1 178 23 32 27 45 88 41 175 -6 111 -53 221
-139 328 -128 160 -396 289 -642 309 -79 7 -184 12 -187 9z"/>
<path d="M4204 4808 c-39 -28 -52 -62 -80 -224 -3 -16 -9 -45 -14 -64 -5 -19
-11 -46 -14 -60 -2 -14 -23 -110 -45 -215 -23 -104 -43 -199 -45 -210 -2 -11
-7 -31 -10 -45 -3 -14 -8 -36 -10 -50 -2 -14 -19 -90 -36 -170 -17 -80 -34
-156 -36 -170 -3 -14 -14 -63 -24 -110 -10 -47 -21 -96 -24 -110 -2 -14 -20
-100 -40 -192 -20 -92 -38 -179 -40 -193 -3 -14 -7 -33 -10 -43 -3 -9 -7 -28
-10 -42 -3 -14 -7 -36 -10 -49 -3 -14 -15 -70 -26 -125 -12 -56 -30 -139 -40
-186 -10 -47 -21 -96 -24 -110 -5 -27 -55 -265 -61 -290 -43 -188 -44 -212 -9
-239 24 -19 40 -21 161 -21 192 0 216 14 242 140 18 87 19 91 36 170 13 60 68
319 90 425 5 22 23 109 29 140 19 91 57 259 61 265 2 4 195 7 427 7 233 0 459
3 503 7 551 47 892 333 1016 854 85 355 4 630 -230 780 -117 75 -232 114 -421
142 -30 4 -329 9 -665 9 l-610 1 -31 -22z m1251 -345 c180 -30 275 -102 308
-234 13 -50 14 -155 2 -216 -3 -15 -8 -44 -11 -63 -19 -118 -86 -249 -169
-335 -71 -73 -124 -110 -220 -152 -63 -28 -84 -34 -150 -47 -11 -3 -39 -9 -63
-14 -24 -6 -225 -11 -452 -11 -366 -2 -410 0 -410 14 0 8 9 59 21 111 11 53
22 104 24 113 7 36 57 267 60 281 4 17 37 175 85 405 17 82 33 152 36 157 9
14 851 6 939 -9z"/>
</g>
</svg>
