<svg width="285" height="285" viewBox="0 0 285 285" fill="none" xmlns="http://www.w3.org/2000/svg">
<path d="M78.1446 209.71C69.2526 209.71 61.7286 208.456 55.5726 205.948C49.4166 203.44 44.7996 200.077 41.7216 195.859C38.6436 191.527 37.1046 186.739 37.1046 181.495C37.1046 179.899 37.1616 178.702 37.2756 177.904C37.3896 176.878 37.7886 176.023 38.4726 175.339C39.1566 174.655 40.0116 174.313 41.0376 174.313H50.4426C52.4946 174.313 53.7486 175.453 54.2046 177.733C54.2046 182.407 56.2566 186.511 60.3606 190.045C64.4646 193.465 70.6206 195.175 78.8286 195.175C88.4046 195.175 96.0426 193.465 101.743 190.045C107.443 186.625 110.92 181.951 112.174 176.023C112.402 175.225 112.516 174.085 112.516 172.603C112.516 169.639 111.433 167.131 109.267 165.079C107.215 163.027 104.194 161.203 100.204 159.607C96.2136 158.011 90.3426 155.959 82.5906 153.451C72.2166 150.259 64.6356 146.554 59.8476 142.336C55.0596 138.004 52.6656 132.361 52.6656 125.407C52.6656 122.443 52.9506 119.764 53.5206 117.37C55.5726 108.022 60.6456 100.555 68.7396 94.969C76.8336 89.383 87.3216 86.59 100.204 86.59C108.184 86.59 115.024 87.958 120.724 90.694C126.538 93.43 130.927 96.907 133.891 101.125C136.855 105.343 138.337 109.675 138.337 114.121C138.337 114.805 138.223 115.945 137.995 117.541C137.539 119.821 136.285 120.961 134.233 120.961H124.486C122.206 120.961 121.009 119.878 120.895 117.712C121.237 112.924 119.356 108.991 115.252 105.913C111.262 102.721 106.018 101.125 99.5196 101.125C91.7676 101.125 85.2126 102.607 79.8546 105.571C74.6106 108.535 71.3616 112.924 70.1076 118.738C69.7656 120.106 69.5946 121.417 69.5946 122.671C69.5946 126.889 71.5896 130.309 75.5796 132.931C79.6836 135.439 86.8656 138.232 97.1256 141.31C108.64 144.73 116.962 148.606 122.092 152.938C127.336 157.156 129.958 162.799 129.958 169.867C129.958 171.691 129.673 174.142 129.103 177.22C126.823 187.822 121.294 195.916 112.516 201.502C103.852 206.974 92.3946 209.71 78.1446 209.71ZM148.446 208C147.306 208 146.451 207.601 145.881 206.803C145.425 206.347 145.197 205.72 145.197 204.922C145.197 204.694 145.254 204.409 145.368 204.067L169.137 92.404C169.365 91.15 169.878 90.181 170.676 89.497C171.588 88.699 172.614 88.3 173.754 88.3H215.991C227.391 88.3 236.283 90.637 242.667 95.311C249.051 99.985 252.243 106.825 252.243 115.831C252.243 118.567 251.901 121.588 251.217 124.894C248.595 136.978 243.237 146.098 235.143 152.254C227.049 158.296 216.447 161.317 203.337 161.317H171.531L162.468 204.067C162.24 205.207 161.67 206.176 160.758 206.974C159.846 207.658 158.82 208 157.68 208H148.446ZM202.995 146.953C211.089 146.953 217.929 145.072 223.515 141.31C229.101 137.434 232.635 131.962 234.117 124.894C234.801 121.93 235.143 119.251 235.143 116.857C235.143 112.069 233.547 108.535 230.355 106.255C227.163 103.861 221.805 102.664 214.281 102.664H183.843L174.438 146.953H202.995Z" fill="url(#paint0_linear)"/>
<defs>
<linearGradient id="paint0_linear" x1="340" y1="-25" x2="33" y2="237" gradientUnits="userSpaceOnUse">
<stop offset="0.371373" stop-color="#0086D1"/>
<stop offset="1" stop-color="#AD00FF"/>
</linearGradient>
</defs>
</svg>
